<mxfile host="app.diagrams.net" modified="2024-01-11T14:10:50.445Z" agent="Mozilla/5.0 (Windows NT 10.0; Win64; x64) AppleWebKit/537.36 (KHTML, like Gecko) Chrome/118.0.0.0 YaBrowser/23.11.0.0 Safari/537.36" etag="2V9OORPYgN_HYI6vuzBH" version="22.1.18" type="github">
  <diagram name="Страница — 1" id="Peyumjw5URuly9kFW43Q">
    <mxGraphModel dx="2828" dy="791" grid="1" gridSize="10" guides="1" tooltips="1" connect="1" arrows="1" fold="1" page="1" pageScale="1" pageWidth="1442" pageHeight="2039" math="0" shadow="0">
      <root>
        <mxCell id="0" />
        <mxCell id="1" parent="0" />
        <mxCell id="ebJdtVaLL1bnCvcitPXk-1" style="edgeStyle=orthogonalEdgeStyle;rounded=0;orthogonalLoop=1;jettySize=auto;html=1;entryX=0;entryY=0.5;entryDx=0;entryDy=0;startArrow=none;exitX=1.023;exitY=0.685;exitDx=0;exitDy=0;exitPerimeter=0;" edge="1" parent="1" source="ebJdtVaLL1bnCvcitPXk-20" target="ebJdtVaLL1bnCvcitPXk-5">
          <mxGeometry relative="1" as="geometry">
            <mxPoint x="133" y="190" as="sourcePoint" />
            <Array as="points">
              <mxPoint x="144" y="190" />
            </Array>
          </mxGeometry>
        </mxCell>
        <mxCell id="ebJdtVaLL1bnCvcitPXk-2" style="edgeStyle=orthogonalEdgeStyle;rounded=0;orthogonalLoop=1;jettySize=auto;html=1;entryX=0;entryY=0.5;entryDx=0;entryDy=0;startArrow=none;exitX=-0.012;exitY=0.544;exitDx=0;exitDy=0;exitPerimeter=0;" edge="1" parent="1" source="ebJdtVaLL1bnCvcitPXk-22">
          <mxGeometry relative="1" as="geometry">
            <mxPoint x="145" y="596" as="sourcePoint" />
            <mxPoint x="285" y="632.5" as="targetPoint" />
            <Array as="points">
              <mxPoint x="141" y="633" />
              <mxPoint x="145" y="633" />
            </Array>
          </mxGeometry>
        </mxCell>
        <mxCell id="ebJdtVaLL1bnCvcitPXk-3" value="файл" style="html=1;" vertex="1" name="Object" parent="1">
          <mxGeometry x="85" y="377.5" width="110" height="50" as="geometry" />
        </mxCell>
        <mxCell id="ebJdtVaLL1bnCvcitPXk-4" style="edgeStyle=orthogonalEdgeStyle;rounded=0;orthogonalLoop=1;jettySize=auto;html=1;entryX=0;entryY=0.5;entryDx=0;entryDy=0;startArrow=none;exitX=1.032;exitY=0.529;exitDx=0;exitDy=0;exitPerimeter=0;" edge="1" parent="1" source="ebJdtVaLL1bnCvcitPXk-19" target="ebJdtVaLL1bnCvcitPXk-6">
          <mxGeometry relative="1" as="geometry">
            <Array as="points">
              <mxPoint x="465" y="140" />
              <mxPoint x="480" y="140" />
            </Array>
          </mxGeometry>
        </mxCell>
        <mxCell id="ebJdtVaLL1bnCvcitPXk-5" value="выбор ключа" style="html=1;" vertex="1" name="Object" parent="1">
          <mxGeometry x="225" y="165" width="110" height="50" as="geometry" />
        </mxCell>
        <mxCell id="ebJdtVaLL1bnCvcitPXk-6" value="сгенерированный&lt;br&gt;ключ" style="html=1;" vertex="1" name="Object" parent="1">
          <mxGeometry x="525" y="115" width="110" height="50" as="geometry" />
        </mxCell>
        <mxCell id="ebJdtVaLL1bnCvcitPXk-7" value="собственный&lt;br&gt;&amp;nbsp;ключ" style="html=1;" vertex="1" name="Object" parent="1">
          <mxGeometry x="525" y="232.5" width="110" height="50" as="geometry" />
        </mxCell>
        <mxCell id="ebJdtVaLL1bnCvcitPXk-8" value="итоговый&amp;nbsp;&lt;br&gt;ключ" style="html=1;" vertex="1" name="Object" parent="1">
          <mxGeometry x="780" y="165" width="90" height="50" as="geometry" />
        </mxCell>
        <mxCell id="ebJdtVaLL1bnCvcitPXk-9" value="зашифрованный&amp;nbsp;&lt;br&gt;файл" style="html=1;" vertex="1" name="Object" parent="1">
          <mxGeometry x="1080" y="165" width="110" height="50" as="geometry" />
        </mxCell>
        <mxCell id="ebJdtVaLL1bnCvcitPXk-10" value="сохраненный фаил" style="html=1;" vertex="1" name="Object" parent="1">
          <mxGeometry x="1080" y="377.5" width="110" height="50" as="geometry" />
        </mxCell>
        <mxCell id="ebJdtVaLL1bnCvcitPXk-11" style="edgeStyle=orthogonalEdgeStyle;rounded=0;orthogonalLoop=1;jettySize=auto;html=1;entryX=0;entryY=0.5;entryDx=0;entryDy=0;startArrow=none;" edge="1" parent="1" source="ebJdtVaLL1bnCvcitPXk-37" target="ebJdtVaLL1bnCvcitPXk-13">
          <mxGeometry relative="1" as="geometry" />
        </mxCell>
        <mxCell id="ebJdtVaLL1bnCvcitPXk-12" value="ключ" style="html=1;" vertex="1" name="Object" parent="1">
          <mxGeometry x="285" y="600" width="110" height="50" as="geometry" />
        </mxCell>
        <mxCell id="ebJdtVaLL1bnCvcitPXk-13" value="дешифрованный&amp;nbsp;&lt;br&gt;файл" style="html=1;" vertex="1" name="Object" parent="1">
          <mxGeometry x="1082.5" y="600" width="110" height="50" as="geometry" />
        </mxCell>
        <mxCell id="ebJdtVaLL1bnCvcitPXk-14" value="" style="endArrow=classic;html=1;rounded=0;entryX=0;entryY=0.5;entryDx=0;entryDy=0;" edge="1" name="Line" parent="1" target="ebJdtVaLL1bnCvcitPXk-3">
          <mxGeometry width="50" height="50" relative="1" as="geometry">
            <mxPoint y="403" as="sourcePoint" />
            <mxPoint x="50" y="375" as="targetPoint" />
          </mxGeometry>
        </mxCell>
        <mxCell id="ebJdtVaLL1bnCvcitPXk-15" value="путь к файлу" style="text;html=1;align=center;verticalAlign=middle;resizable=0;points=[];autosize=1;strokeColor=none;fillColor=none;" vertex="1" parent="1">
          <mxGeometry y="377.5" width="90" height="15" as="geometry" />
        </mxCell>
        <mxCell id="ebJdtVaLL1bnCvcitPXk-16" style="edgeStyle=orthogonalEdgeStyle;rounded=0;orthogonalLoop=1;jettySize=auto;html=1;entryX=0;entryY=0.5;entryDx=0;entryDy=0;" edge="1" parent="1" source="ebJdtVaLL1bnCvcitPXk-17" target="ebJdtVaLL1bnCvcitPXk-7">
          <mxGeometry relative="1" as="geometry" />
        </mxCell>
        <mxCell id="ebJdtVaLL1bnCvcitPXk-17" value="выбор собственного ключа" style="text;html=1;align=center;verticalAlign=middle;resizable=0;points=[];autosize=1;strokeColor=none;fillColor=none;" vertex="1" parent="1">
          <mxGeometry x="315" y="250" width="180" height="15" as="geometry" />
        </mxCell>
        <mxCell id="ebJdtVaLL1bnCvcitPXk-18" value="" style="edgeStyle=orthogonalEdgeStyle;rounded=0;orthogonalLoop=1;jettySize=auto;html=1;exitX=0.5;exitY=1;exitDx=0;exitDy=0;endArrow=none;entryX=0;entryY=0.5;entryDx=0;entryDy=0;entryPerimeter=0;" edge="1" parent="1" source="ebJdtVaLL1bnCvcitPXk-5" target="ebJdtVaLL1bnCvcitPXk-17">
          <mxGeometry relative="1" as="geometry">
            <mxPoint x="340" y="215" as="sourcePoint" />
            <mxPoint x="341" y="225" as="targetPoint" />
            <Array as="points">
              <mxPoint x="280" y="258" />
              <mxPoint x="315" y="258" />
            </Array>
          </mxGeometry>
        </mxCell>
        <mxCell id="ebJdtVaLL1bnCvcitPXk-19" value="генерация ключа" style="text;html=1;align=center;verticalAlign=middle;resizable=0;points=[];autosize=1;strokeColor=none;fillColor=none;" vertex="1" parent="1">
          <mxGeometry x="345" y="132.5" width="120" height="15" as="geometry" />
        </mxCell>
        <mxCell id="ebJdtVaLL1bnCvcitPXk-20" value="выбор шифрования" style="text;html=1;align=center;verticalAlign=middle;resizable=0;points=[];autosize=1;strokeColor=none;fillColor=none;rotation=-89;" vertex="1" parent="1">
          <mxGeometry x="72.5" y="265" width="135" height="15" as="geometry" />
        </mxCell>
        <mxCell id="ebJdtVaLL1bnCvcitPXk-21" value="" style="edgeStyle=orthogonalEdgeStyle;rounded=0;orthogonalLoop=1;jettySize=auto;html=1;entryX=0;entryY=0.5;entryDx=0;entryDy=0;exitX=0.5;exitY=0;exitDx=0;exitDy=0;endArrow=none;" edge="1" parent="1" source="ebJdtVaLL1bnCvcitPXk-3" target="ebJdtVaLL1bnCvcitPXk-20">
          <mxGeometry relative="1" as="geometry">
            <mxPoint x="140" y="377.5" as="sourcePoint" />
            <mxPoint x="285" y="190" as="targetPoint" />
          </mxGeometry>
        </mxCell>
        <mxCell id="ebJdtVaLL1bnCvcitPXk-22" value="выбор дешифрования" style="text;html=1;align=center;verticalAlign=middle;resizable=0;points=[];autosize=1;strokeColor=none;fillColor=none;rotation=-90;" vertex="1" parent="1">
          <mxGeometry x="65" y="510" width="150" height="15" as="geometry" />
        </mxCell>
        <mxCell id="ebJdtVaLL1bnCvcitPXk-23" value="" style="edgeStyle=orthogonalEdgeStyle;rounded=0;orthogonalLoop=1;jettySize=auto;html=1;exitX=0.5;exitY=1;exitDx=0;exitDy=0;endArrow=none;entryX=0.997;entryY=0.522;entryDx=0;entryDy=0;entryPerimeter=0;" edge="1" parent="1" source="ebJdtVaLL1bnCvcitPXk-3" target="ebJdtVaLL1bnCvcitPXk-22">
          <mxGeometry relative="1" as="geometry">
            <mxPoint x="140" y="427.5" as="sourcePoint" />
            <mxPoint x="140" y="435" as="targetPoint" />
          </mxGeometry>
        </mxCell>
        <mxCell id="ebJdtVaLL1bnCvcitPXk-24" style="edgeStyle=orthogonalEdgeStyle;rounded=0;orthogonalLoop=1;jettySize=auto;html=1;entryX=0.5;entryY=0;entryDx=0;entryDy=0;exitX=1.002;exitY=0.456;exitDx=0;exitDy=0;exitPerimeter=0;" edge="1" parent="1" source="ebJdtVaLL1bnCvcitPXk-25" target="ebJdtVaLL1bnCvcitPXk-8">
          <mxGeometry relative="1" as="geometry">
            <mxPoint x="825" y="150" as="targetPoint" />
          </mxGeometry>
        </mxCell>
        <mxCell id="ebJdtVaLL1bnCvcitPXk-25" value="копированее&amp;nbsp;ключа" style="text;html=1;align=center;verticalAlign=middle;resizable=0;points=[];autosize=1;strokeColor=none;fillColor=none;" vertex="1" parent="1">
          <mxGeometry x="654" y="130.5" width="135" height="15" as="geometry" />
        </mxCell>
        <mxCell id="ebJdtVaLL1bnCvcitPXk-26" value="" style="endArrow=none;html=1;rounded=0;exitX=1;exitY=0.5;exitDx=0;exitDy=0;entryX=-0.006;entryY=0.644;entryDx=0;entryDy=0;entryPerimeter=0;" edge="1" parent="1" source="ebJdtVaLL1bnCvcitPXk-6" target="ebJdtVaLL1bnCvcitPXk-25">
          <mxGeometry width="50" height="50" relative="1" as="geometry">
            <mxPoint x="630" y="135" as="sourcePoint" />
            <mxPoint x="710" y="135" as="targetPoint" />
          </mxGeometry>
        </mxCell>
        <mxCell id="ebJdtVaLL1bnCvcitPXk-27" style="edgeStyle=orthogonalEdgeStyle;rounded=0;orthogonalLoop=1;jettySize=auto;html=1;entryX=0.5;entryY=1;entryDx=0;entryDy=0;" edge="1" parent="1" source="ebJdtVaLL1bnCvcitPXk-28" target="ebJdtVaLL1bnCvcitPXk-8">
          <mxGeometry relative="1" as="geometry" />
        </mxCell>
        <mxCell id="ebJdtVaLL1bnCvcitPXk-28" value="ввод ключа" style="text;html=1;align=center;verticalAlign=middle;resizable=0;points=[];autosize=1;strokeColor=none;fillColor=none;" vertex="1" parent="1">
          <mxGeometry x="676" y="250" width="90" height="15" as="geometry" />
        </mxCell>
        <mxCell id="ebJdtVaLL1bnCvcitPXk-29" value="" style="endArrow=none;html=1;rounded=0;exitX=1;exitY=0.5;exitDx=0;exitDy=0;entryX=-0.004;entryY=0.519;entryDx=0;entryDy=0;entryPerimeter=0;" edge="1" parent="1" source="ebJdtVaLL1bnCvcitPXk-7" target="ebJdtVaLL1bnCvcitPXk-28">
          <mxGeometry width="50" height="50" relative="1" as="geometry">
            <mxPoint x="660" y="225" as="sourcePoint" />
            <mxPoint x="740" y="225" as="targetPoint" />
          </mxGeometry>
        </mxCell>
        <mxCell id="ebJdtVaLL1bnCvcitPXk-30" value="" style="endArrow=none;html=1;rounded=0;exitX=0.5;exitY=0;exitDx=0;exitDy=0;entryX=-0.006;entryY=0.544;entryDx=0;entryDy=0;entryPerimeter=0;" edge="1" parent="1" source="ebJdtVaLL1bnCvcitPXk-5" target="ebJdtVaLL1bnCvcitPXk-19">
          <mxGeometry width="50" height="50" relative="1" as="geometry">
            <mxPoint x="255" y="120" as="sourcePoint" />
            <mxPoint x="335" y="120" as="targetPoint" />
            <Array as="points">
              <mxPoint x="280" y="141" />
            </Array>
          </mxGeometry>
        </mxCell>
        <mxCell id="ebJdtVaLL1bnCvcitPXk-31" style="edgeStyle=orthogonalEdgeStyle;rounded=0;orthogonalLoop=1;jettySize=auto;html=1;entryX=0.5;entryY=0;entryDx=0;entryDy=0;" edge="1" parent="1" source="ebJdtVaLL1bnCvcitPXk-32" target="ebJdtVaLL1bnCvcitPXk-10">
          <mxGeometry relative="1" as="geometry" />
        </mxCell>
        <mxCell id="ebJdtVaLL1bnCvcitPXk-32" value="указание пути&amp;nbsp;&lt;br&gt;сохранения" style="text;html=1;align=center;verticalAlign=middle;resizable=0;points=[];autosize=1;strokeColor=none;fillColor=none;rotation=-90;" vertex="1" parent="1">
          <mxGeometry x="1082.5" y="273" width="105" height="30" as="geometry" />
        </mxCell>
        <mxCell id="ebJdtVaLL1bnCvcitPXk-33" style="edgeStyle=orthogonalEdgeStyle;rounded=0;orthogonalLoop=1;jettySize=auto;html=1;entryX=0.5;entryY=1;entryDx=0;entryDy=0;" edge="1" parent="1" source="ebJdtVaLL1bnCvcitPXk-34" target="ebJdtVaLL1bnCvcitPXk-10">
          <mxGeometry relative="1" as="geometry" />
        </mxCell>
        <mxCell id="ebJdtVaLL1bnCvcitPXk-34" value="указание пути &lt;br&gt;сохранения" style="text;html=1;align=center;verticalAlign=middle;resizable=0;points=[];autosize=1;strokeColor=none;fillColor=none;rotation=-90;" vertex="1" parent="1">
          <mxGeometry x="1082.5" y="518" width="105" height="30" as="geometry" />
        </mxCell>
        <mxCell id="ebJdtVaLL1bnCvcitPXk-35" value="" style="edgeStyle=orthogonalEdgeStyle;rounded=0;orthogonalLoop=1;jettySize=auto;html=1;entryX=-0.018;entryY=0.51;entryDx=0;entryDy=0;endArrow=none;entryPerimeter=0;exitX=0.5;exitY=0;exitDx=0;exitDy=0;" edge="1" parent="1" source="ebJdtVaLL1bnCvcitPXk-13" target="ebJdtVaLL1bnCvcitPXk-34">
          <mxGeometry relative="1" as="geometry">
            <mxPoint x="1045" y="600" as="sourcePoint" />
            <mxPoint x="1045" y="410" as="targetPoint" />
          </mxGeometry>
        </mxCell>
        <mxCell id="ebJdtVaLL1bnCvcitPXk-36" value="" style="endArrow=none;html=1;rounded=0;entryX=0.5;entryY=1;entryDx=0;entryDy=0;exitX=1.016;exitY=0.526;exitDx=0;exitDy=0;exitPerimeter=0;" edge="1" parent="1" source="ebJdtVaLL1bnCvcitPXk-32" target="ebJdtVaLL1bnCvcitPXk-9">
          <mxGeometry width="50" height="50" relative="1" as="geometry">
            <mxPoint x="1048" y="234" as="sourcePoint" />
            <mxPoint x="1005" y="105" as="targetPoint" />
          </mxGeometry>
        </mxCell>
        <mxCell id="ebJdtVaLL1bnCvcitPXk-37" value="дешифрование" style="text;html=1;align=center;verticalAlign=middle;resizable=0;points=[];autosize=1;strokeColor=none;fillColor=none;" vertex="1" parent="1">
          <mxGeometry x="900" y="617.5" width="105" height="15" as="geometry" />
        </mxCell>
        <mxCell id="ebJdtVaLL1bnCvcitPXk-38" value="" style="edgeStyle=orthogonalEdgeStyle;rounded=0;orthogonalLoop=1;jettySize=auto;html=1;entryX=0;entryY=0.5;entryDx=0;entryDy=0;endArrow=none;" edge="1" parent="1" source="ebJdtVaLL1bnCvcitPXk-12" target="ebJdtVaLL1bnCvcitPXk-37">
          <mxGeometry relative="1" as="geometry">
            <mxPoint x="395" y="625" as="sourcePoint" />
            <mxPoint x="992.5000000000005" y="625" as="targetPoint" />
          </mxGeometry>
        </mxCell>
        <mxCell id="ebJdtVaLL1bnCvcitPXk-39" style="edgeStyle=orthogonalEdgeStyle;rounded=0;orthogonalLoop=1;jettySize=auto;html=1;entryX=0;entryY=0.5;entryDx=0;entryDy=0;" edge="1" parent="1" source="ebJdtVaLL1bnCvcitPXk-40" target="ebJdtVaLL1bnCvcitPXk-9">
          <mxGeometry relative="1" as="geometry" />
        </mxCell>
        <mxCell id="ebJdtVaLL1bnCvcitPXk-40" value="шифрование" style="text;html=1;align=center;verticalAlign=middle;resizable=0;points=[];autosize=1;strokeColor=none;fillColor=none;" vertex="1" parent="1">
          <mxGeometry x="930" y="182.5" width="90" height="15" as="geometry" />
        </mxCell>
        <mxCell id="ebJdtVaLL1bnCvcitPXk-41" value="" style="endArrow=none;html=1;rounded=0;exitX=1;exitY=0.5;exitDx=0;exitDy=0;" edge="1" parent="1" source="ebJdtVaLL1bnCvcitPXk-8">
          <mxGeometry width="50" height="50" relative="1" as="geometry">
            <mxPoint x="885" y="105" as="sourcePoint" />
            <mxPoint x="870" y="190" as="targetPoint" />
          </mxGeometry>
        </mxCell>
        <mxCell id="ebJdtVaLL1bnCvcitPXk-42" value="" style="endArrow=none;html=1;rounded=0;exitX=1;exitY=0.5;exitDx=0;exitDy=0;entryX=-0.014;entryY=0.471;entryDx=0;entryDy=0;entryPerimeter=0;" edge="1" parent="1" source="ebJdtVaLL1bnCvcitPXk-8" target="ebJdtVaLL1bnCvcitPXk-40">
          <mxGeometry width="50" height="50" relative="1" as="geometry">
            <mxPoint x="885" y="135" as="sourcePoint" />
            <mxPoint x="965" y="135" as="targetPoint" />
          </mxGeometry>
        </mxCell>
        <mxCell id="ebJdtVaLL1bnCvcitPXk-43" value="пользователь 1" style="html=1;" vertex="1" name="Object" parent="1">
          <mxGeometry x="-110" y="378" width="110" height="50" as="geometry" />
        </mxCell>
      </root>
    </mxGraphModel>
  </diagram>
</mxfile>
